<?xml version="1.0" encoding="UTF-8" standalone="no" ?>
<!DOCTYPE svg PUBLIC "-//W3C//DTD SVG 1.1//EN" "http://www.w3.org/Graphics/SVG/1.1/DTD/svg11.dtd">
<svg xmlns="http://www.w3.org/2000/svg" xmlns:xlink="http://www.w3.org/1999/xlink" version="1.1" width="500" height="500" viewBox="0 0 500 500" xml:space="preserve">
<desc>Created with Fabric.js 5.3.0</desc>
<defs>
</defs>
<g transform="matrix(0.9391240856 0 0 0.9391240856 61.9190217342 62.3593138946)" id="HRnA_HIDGnJzf1_PC1vku"  >
<path style="stroke: rgb(102,36,143); stroke-width: 0; stroke-dasharray: none; stroke-linecap: butt; stroke-dashoffset: 0; stroke-linejoin: miter; stroke-miterlimit: 4; fill: rgb(238,82,83); fill-rule: nonzero; opacity: 1;"  transform=" translate(0, 0)" d="M 0 -53.4188 C 29.48718 -53.4188 53.4188 -29.48718 53.4188 0 C 53.4188 29.48718 29.48718 53.4188 0 53.4188 C -29.48718 53.4188 -53.4188 29.48718 -53.4188 0 C -53.4188 -29.48718 -29.48718 -53.4188 0 -53.4188 z" stroke-linecap="round" />
</g>
<g transform="matrix(0.9391240856 0 0 0.9391240856 248.9474378679 249.3877264744)" id="zvECWrAbulWwp7MwZed2e"  >
<path style="stroke: rgb(102,36,143); stroke-width: 0; stroke-dasharray: none; stroke-linecap: butt; stroke-dashoffset: 0; stroke-linejoin: miter; stroke-miterlimit: 4; fill: rgb(238,82,83); fill-rule: nonzero; opacity: 1;"  transform=" translate(0, 0)" d="M 0 -53.4188 C 29.48718 -53.4188 53.4188 -29.48718 53.4188 0 C 53.4188 29.48718 29.48718 53.4188 0 53.4188 C -29.48718 53.4188 -53.4188 29.48718 -53.4188 0 C -53.4188 -29.48718 -29.48718 -53.4188 0 -53.4188 z" stroke-linecap="round" />
</g>
<g transform="matrix(0.9391240856 0 0 0.9391240856 436.2266958326 60.9107934542)" id="G24PKAnwr7axJOpVaFCbY"  >
<path style="stroke: rgb(102,36,143); stroke-width: 0; stroke-dasharray: none; stroke-linecap: butt; stroke-dashoffset: 0; stroke-linejoin: miter; stroke-miterlimit: 4; fill: rgb(238,82,83); fill-rule: nonzero; opacity: 1;"  transform=" translate(0, 0)" d="M 0 -53.4188 C 29.48718 -53.4188 53.4188 -29.48718 53.4188 0 C 53.4188 29.48718 29.48718 53.4188 0 53.4188 C -29.48718 53.4188 -53.4188 29.48718 -53.4188 0 C -53.4188 -29.48718 -29.48718 -53.4188 0 -53.4188 z" stroke-linecap="round" />
</g>
<g transform="matrix(0.509474819 0 0 0.509474819 158.6217172458 62.3593138946)" id="fUdILH9rqvIiqXXEwKSxj"  >
<path style="stroke: rgb(102,36,143); stroke-width: 0; stroke-dasharray: none; stroke-linecap: butt; stroke-dashoffset: 0; stroke-linejoin: miter; stroke-miterlimit: 4; fill: rgb(238,82,83); fill-rule: nonzero; opacity: 1;"  transform=" translate(0, 0)" d="M 0 -53.4188 C 29.48718 -53.4188 53.4188 -29.48718 53.4188 0 C 53.4188 29.48718 29.48718 53.4188 0 53.4188 C -29.48718 53.4188 -53.4188 29.48718 -53.4188 0 C -53.4188 -29.48718 -29.48718 -53.4188 0 -53.4188 z" stroke-linecap="round" />
</g>
<g transform="matrix(0.5094748189 0 0 0.5094748189 61.9190217342 159.0620038927)" id="rwkNZxiE_C1VluMFlZ8Jl"  >
<path style="stroke: rgb(102,36,143); stroke-width: 0; stroke-dasharray: none; stroke-linecap: butt; stroke-dashoffset: 0; stroke-linejoin: miter; stroke-miterlimit: 4; fill: rgb(238,82,83); fill-rule: nonzero; opacity: 1;"  transform=" translate(0, 0)" d="M 0 -53.4188 C 29.48718 -53.4188 53.4188 -29.48718 53.4188 0 C 53.4188 29.48718 29.48718 53.4188 0 53.4188 C -29.48718 53.4188 -53.4188 29.48718 -53.4188 0 C -53.4188 -29.48718 -29.48718 -53.4188 0 -53.4188 z" stroke-linecap="round" />
</g>
<g transform="matrix(0.5094748189 0 0 0.5094748189 61.9190217342 339.9642884994)" id="bjHz7c2Q7Nlg_dUnt1kUI"  >
<path style="stroke: rgb(102,36,143); stroke-width: 0; stroke-dasharray: none; stroke-linecap: butt; stroke-dashoffset: 0; stroke-linejoin: miter; stroke-miterlimit: 4; fill: rgb(238,82,83); fill-rule: nonzero; opacity: 1;"  transform=" translate(0, 0)" d="M 0 -53.4188 C 29.48718 -53.4188 53.4188 -29.48718 53.4188 0 C 53.4188 29.48718 29.48718 53.4188 0 53.4188 C -29.48718 53.4188 -53.4188 29.48718 -53.4188 0 C -53.4188 -29.48718 -29.48718 -53.4188 0 -53.4188 z" stroke-linecap="round" />
</g>
<g transform="matrix(0.5094748189 0 0 0.5094748189 340.4631331358 62.3593131261)" id="goUNlWmGMSUHkq1MhwJyD"  >
<path style="stroke: rgb(102,36,143); stroke-width: 0; stroke-dasharray: none; stroke-linecap: butt; stroke-dashoffset: 0; stroke-linejoin: miter; stroke-miterlimit: 4; fill: rgb(238,82,83); fill-rule: nonzero; opacity: 1;"  transform=" translate(0, 0)" d="M 0 -53.4188 C 29.48718 -53.4188 53.4188 -29.48718 53.4188 0 C 53.4188 29.48718 29.48718 53.4188 0 53.4188 C -29.48718 53.4188 -53.4188 29.48718 -53.4188 0 C -53.4188 -29.48718 -29.48718 -53.4188 0 -53.4188 z" stroke-linecap="round" />
</g>
<g transform="matrix(0.5094748189 0 0 0.5094748189 249.0728641278 150.6098871227)" id="UEzGMwdTZekE2EybGRu1P"  >
<path style="stroke: rgb(102,36,143); stroke-width: 0; stroke-dasharray: none; stroke-linecap: butt; stroke-dashoffset: 0; stroke-linejoin: miter; stroke-miterlimit: 4; fill: rgb(238,82,83); fill-rule: nonzero; opacity: 1;"  transform=" translate(0, 0)" d="M 0 -53.4188 C 29.48718 -53.4188 53.4188 -29.48718 53.4188 0 C 53.4188 29.48718 29.48718 53.4188 0 53.4188 C -29.48718 53.4188 -53.4188 29.48718 -53.4188 0 C -53.4188 -29.48718 -29.48718 -53.4188 0 -53.4188 z" stroke-linecap="round" />
</g>
<g transform="matrix(0.5094748189 0 0 0.5094748189 249.0728641278 352.1729016117)" id="GfJHfLZBFXF8ehD6JdCRN"  >
<path style="stroke: rgb(102,36,143); stroke-width: 0; stroke-dasharray: none; stroke-linecap: butt; stroke-dashoffset: 0; stroke-linejoin: miter; stroke-miterlimit: 4; fill: rgb(238,82,83); fill-rule: nonzero; opacity: 1;"  transform=" translate(0, 0)" d="M 0 -53.4188 C 29.48718 -53.4188 53.4188 -29.48718 53.4188 0 C 53.4188 29.48718 29.48718 53.4188 0 53.4188 C -29.48718 53.4188 -53.4188 29.48718 -53.4188 0 C -53.4188 -29.48718 -29.48718 -53.4188 0 -53.4188 z" stroke-linecap="round" />
</g>
<g transform="matrix(0.5094748189 0 0 0.5094748189 348.9152518654 249.3877264744)" id="3Vrjsdvc9iKJ0lB0pcLa6"  >
<path style="stroke: rgb(102,36,143); stroke-width: 0; stroke-dasharray: none; stroke-linecap: butt; stroke-dashoffset: 0; stroke-linejoin: miter; stroke-miterlimit: 4; fill: rgb(238,82,83); fill-rule: nonzero; opacity: 1;"  transform=" translate(0, 0)" d="M 0 -53.4188 C 29.48718 -53.4188 53.4188 -29.48718 53.4188 0 C 53.4188 29.48718 29.48718 53.4188 0 53.4188 C -29.48718 53.4188 -53.4188 29.48718 -53.4188 0 C -53.4188 -29.48718 -29.48718 -53.4188 0 -53.4188 z" stroke-linecap="round" />
</g>
<g transform="matrix(0.5094748189 0 0 0.5094748189 148.2913503451 249.3877264744)" id="BrL1Uv0K4xlMOmXWYYcnn"  >
<path style="stroke: rgb(102,36,143); stroke-width: 0; stroke-dasharray: none; stroke-linecap: butt; stroke-dashoffset: 0; stroke-linejoin: miter; stroke-miterlimit: 4; fill: rgb(238,82,83); fill-rule: nonzero; opacity: 1;"  transform=" translate(0, 0)" d="M 0 -53.4188 C 29.48718 -53.4188 53.4188 -29.48718 53.4188 0 C 53.4188 29.48718 29.48718 53.4188 0 53.4188 C -29.48718 53.4188 -53.4188 29.48718 -53.4188 0 C -53.4188 -29.48718 -29.48718 -53.4188 0 -53.4188 z" stroke-linecap="round" />
</g>
<g transform="matrix(0.6814519334 0 0 0.6814519334 249.0728641278 62.3593138946)" id="9Yh-bgNpB76nVUIuAUE33"  >
<path style="stroke: rgb(102,36,143); stroke-width: 0; stroke-dasharray: none; stroke-linecap: butt; stroke-dashoffset: 0; stroke-linejoin: miter; stroke-miterlimit: 4; fill: rgb(238,82,83); fill-rule: nonzero; opacity: 1;"  transform=" translate(0, 0)" d="M 0 -53.4188 C 29.48718 -53.4188 53.4188 -29.48718 53.4188 0 C 53.4188 29.48718 29.48718 53.4188 0 53.4188 C -29.48718 53.4188 -53.4188 29.48718 -53.4188 0 C -53.4188 -29.48718 -29.48718 -53.4188 0 -53.4188 z" stroke-linecap="round" />
</g>
<g transform="matrix(0.9391240856 0 0 0.9391240856 436.2266938731 436.6669752818)" id="9OLOvdIvy10cbyU5p-ijy"  >
<path style="stroke: rgb(102,36,143); stroke-width: 0; stroke-dasharray: none; stroke-linecap: butt; stroke-dashoffset: 0; stroke-linejoin: miter; stroke-miterlimit: 4; fill: rgb(238,82,83); fill-rule: nonzero; opacity: 1;"  transform=" translate(0, 0)" d="M 0 -53.4188 C 29.48718 -53.4188 53.4188 -29.48718 53.4188 0 C 53.4188 29.48718 29.48718 53.4188 0 53.4188 C -29.48718 53.4188 -53.4188 29.48718 -53.4188 0 C -53.4188 -29.48718 -29.48718 -53.4188 0 -53.4188 z" stroke-linecap="round" />
</g>
<g transform="matrix(0.5094748189 0 0 0.5094748189 158.6217152862 438.1154957222)" id="e9bKlupughm7kSnfJG_1X"  >
<path style="stroke: rgb(102,36,143); stroke-width: 0; stroke-dasharray: none; stroke-linecap: butt; stroke-dashoffset: 0; stroke-linejoin: miter; stroke-miterlimit: 4; fill: rgb(238,82,83); fill-rule: nonzero; opacity: 1;"  transform=" translate(0, 0)" d="M 0 -53.4188 C 29.48718 -53.4188 53.4188 -29.48718 53.4188 0 C 53.4188 29.48718 29.48718 53.4188 0 53.4188 C -29.48718 53.4188 -53.4188 29.48718 -53.4188 0 C -53.4188 -29.48718 -29.48718 -53.4188 0 -53.4188 z" stroke-linecap="round" />
</g>
<g transform="matrix(0.5094748189 0 0 0.5094748189 340.4631311762 438.1154949538)" id="mSac7geuWJMiK8Cf8cfgk"  >
<path style="stroke: rgb(102,36,143); stroke-width: 0; stroke-dasharray: none; stroke-linecap: butt; stroke-dashoffset: 0; stroke-linejoin: miter; stroke-miterlimit: 4; fill: rgb(238,82,83); fill-rule: nonzero; opacity: 1;"  transform=" translate(0, 0)" d="M 0 -53.4188 C 29.48718 -53.4188 53.4188 -29.48718 53.4188 0 C 53.4188 29.48718 29.48718 53.4188 0 53.4188 C -29.48718 53.4188 -53.4188 29.48718 -53.4188 0 C -53.4188 -29.48718 -29.48718 -53.4188 0 -53.4188 z" stroke-linecap="round" />
</g>
<g transform="matrix(0.6814519334 0 0 0.6814519334 249.0728621683 438.1154957222)" id="KLeQgYSlhTeS2slg82MEi"  >
<path style="stroke: rgb(102,36,143); stroke-width: 0; stroke-dasharray: none; stroke-linecap: butt; stroke-dashoffset: 0; stroke-linejoin: miter; stroke-miterlimit: 4; fill: rgb(238,82,83); fill-rule: nonzero; opacity: 1;"  transform=" translate(0, 0)" d="M 0 -53.4188 C 29.48718 -53.4188 53.4188 -29.48718 53.4188 0 C 53.4188 29.48718 29.48718 53.4188 0 53.4188 C -29.48718 53.4188 -53.4188 29.48718 -53.4188 0 C -53.4188 -29.48718 -29.48718 -53.4188 0 -53.4188 z" stroke-linecap="round" />
</g>
<g transform="matrix(0.6814519334 0 0 0.6814519334 61.9190217342 249.513146196)" id="X75-9TIP-LpgYaR5g5SZQ"  >
<path style="stroke: rgb(102,36,143); stroke-width: 0; stroke-dasharray: none; stroke-linecap: butt; stroke-dashoffset: 0; stroke-linejoin: miter; stroke-miterlimit: 4; fill: rgb(238,82,83); fill-rule: nonzero; opacity: 1;"  transform=" translate(0, 0)" d="M 0 -53.4188 C 29.48718 -53.4188 53.4188 -29.48718 53.4188 0 C 53.4188 29.48718 29.48718 53.4188 0 53.4188 C -29.48718 53.4188 -53.4188 29.48718 -53.4188 0 C -53.4188 -29.48718 -29.48718 -53.4188 0 -53.4188 z" stroke-linecap="round" />
</g>
<g transform="matrix(0.5094748189 0 0 0.5094748189 436.2266938731 159.0620038927)" id="q4J-JQA9IpNYJjVuUR51E"  >
<path style="stroke: rgb(102,36,143); stroke-width: 0; stroke-dasharray: none; stroke-linecap: butt; stroke-dashoffset: 0; stroke-linejoin: miter; stroke-miterlimit: 4; fill: rgb(238,82,83); fill-rule: nonzero; opacity: 1;"  transform=" translate(0, 0)" d="M 0 -53.4188 C 29.48718 -53.4188 53.4188 -29.48718 53.4188 0 C 53.4188 29.48718 29.48718 53.4188 0 53.4188 C -29.48718 53.4188 -53.4188 29.48718 -53.4188 0 C -53.4188 -29.48718 -29.48718 -53.4188 0 -53.4188 z" stroke-linecap="round" />
</g>
<g transform="matrix(0.5094748189 0 0 0.5094748189 436.2266938731 339.9642884994)" id="8X7sAu-YS5jdfJanAkGNQ"  >
<path style="stroke: rgb(102,36,143); stroke-width: 0; stroke-dasharray: none; stroke-linecap: butt; stroke-dashoffset: 0; stroke-linejoin: miter; stroke-miterlimit: 4; fill: rgb(238,82,83); fill-rule: nonzero; opacity: 1;"  transform=" translate(0, 0)" d="M 0 -53.4188 C 29.48718 -53.4188 53.4188 -29.48718 53.4188 0 C 53.4188 29.48718 29.48718 53.4188 0 53.4188 C -29.48718 53.4188 -53.4188 29.48718 -53.4188 0 C -53.4188 -29.48718 -29.48718 -53.4188 0 -53.4188 z" stroke-linecap="round" />
</g>
<g transform="matrix(0.6814519334 0 0 0.6814519334 436.2266938731 249.5131461961)" id="RSFNyspDsEu0fUmnoMNWc"  >
<path style="stroke: rgb(102,36,143); stroke-width: 0; stroke-dasharray: none; stroke-linecap: butt; stroke-dashoffset: 0; stroke-linejoin: miter; stroke-miterlimit: 4; fill: rgb(238,82,83); fill-rule: nonzero; opacity: 1;"  transform=" translate(0, 0)" d="M 0 -53.4188 C 29.48718 -53.4188 53.4188 -29.48718 53.4188 0 C 53.4188 29.48718 29.48718 53.4188 0 53.4188 C -29.48718 53.4188 -53.4188 29.48718 -53.4188 0 C -53.4188 -29.48718 -29.48718 -53.4188 0 -53.4188 z" stroke-linecap="round" />
</g>
<g transform="matrix(0.6814519334 0 0 0.6814519334 154.865218944 155.3055075505)" id="n4pKJpjvjpQXKOJUc_Nkx"  >
<path style="stroke: rgb(102,36,143); stroke-width: 0; stroke-dasharray: none; stroke-linecap: butt; stroke-dashoffset: 0; stroke-linejoin: miter; stroke-miterlimit: 4; fill: rgb(238,82,83); fill-rule: nonzero; opacity: 1;"  transform=" translate(0, 0)" d="M 0 -53.4188 C 29.48718 -53.4188 53.4188 -29.48718 53.4188 0 C 53.4188 29.48718 29.48718 53.4188 0 53.4188 C -29.48718 53.4188 -53.4188 29.48718 -53.4188 0 C -53.4188 -29.48718 -29.48718 -53.4188 0 -53.4188 z" stroke-linecap="round" />
</g>
<g transform="matrix(0.6814519334 0 0 0.6814519334 344.219629478 155.3055075505)" id="RttzNTgNIl9U0bO1J1ahj"  >
<path style="stroke: rgb(102,36,143); stroke-width: 0; stroke-dasharray: none; stroke-linecap: butt; stroke-dashoffset: 0; stroke-linejoin: miter; stroke-miterlimit: 4; fill: rgb(238,82,83); fill-rule: nonzero; opacity: 1;"  transform=" translate(0, 0)" d="M 0 -53.4188 C 29.48718 -53.4188 53.4188 -29.48718 53.4188 0 C 53.4188 29.48718 29.48718 53.4188 0 53.4188 C -29.48718 53.4188 -53.4188 29.48718 -53.4188 0 C -53.4188 -29.48718 -29.48718 -53.4188 0 -53.4188 z" stroke-linecap="round" />
</g>
<g transform="matrix(0.6814519334 0 0 0.6814519334 154.8652209036 343.7207848417)" id="epmxnofzt6lpDOF7H_ic7"  >
<path style="stroke: rgb(102,36,143); stroke-width: 0; stroke-dasharray: none; stroke-linecap: butt; stroke-dashoffset: 0; stroke-linejoin: miter; stroke-miterlimit: 4; fill: rgb(238,82,83); fill-rule: nonzero; opacity: 1;"  transform=" translate(0, 0)" d="M 0 -53.4188 C 29.48718 -53.4188 53.4188 -29.48718 53.4188 0 C 53.4188 29.48718 29.48718 53.4188 0 53.4188 C -29.48718 53.4188 -53.4188 29.48718 -53.4188 0 C -53.4188 -29.48718 -29.48718 -53.4188 0 -53.4188 z" stroke-linecap="round" />
</g>
<g transform="matrix(0.6814519334 0 0 0.6814519334 344.2196314376 343.7207848417)" id="F-ARtVQW37Uwi-T06rpIf"  >
<path style="stroke: rgb(102,36,143); stroke-width: 0; stroke-dasharray: none; stroke-linecap: butt; stroke-dashoffset: 0; stroke-linejoin: miter; stroke-miterlimit: 4; fill: rgb(238,82,83); fill-rule: nonzero; opacity: 1;"  transform=" translate(0, 0)" d="M 0 -53.4188 C 29.48718 -53.4188 53.4188 -29.48718 53.4188 0 C 53.4188 29.48718 29.48718 53.4188 0 53.4188 C -29.48718 53.4188 -53.4188 29.48718 -53.4188 0 C -53.4188 -29.48718 -29.48718 -53.4188 0 -53.4188 z" stroke-linecap="round" />
</g>
<g transform="matrix(0.9391240856 0 0 0.9391240856 61.9190238668 436.6669752818)" id="Ni-QsluoZgrpH2wo4otGv"  >
<path style="stroke: rgb(102,36,143); stroke-width: 0; stroke-dasharray: none; stroke-linecap: butt; stroke-dashoffset: 0; stroke-linejoin: miter; stroke-miterlimit: 4; fill: rgb(238,82,83); fill-rule: nonzero; opacity: 1;"  transform=" translate(0, 0)" d="M 0 -53.4188 C 29.48718 -53.4188 53.4188 -29.48718 53.4188 0 C 53.4188 29.48718 29.48718 53.4188 0 53.4188 C -29.48718 53.4188 -53.4188 29.48718 -53.4188 0 C -53.4188 -29.48718 -29.48718 -53.4188 0 -53.4188 z" stroke-linecap="round" />
</g>
</svg>